<?xml version="1.0" encoding="UTF-8" standalone="no"?>
<!DOCTYPE svg PUBLIC "-//W3C//DTD SVG 1.1//EN" "http://www.w3.org/Graphics/SVG/1.1/DTD/svg11.dtd">
<svg width="100%" height="100%" viewBox="0 0 480 480" version="1.1" xmlns="http://www.w3.org/2000/svg" xmlns:xlink="http://www.w3.org/1999/xlink" xml:space="preserve" xmlns:serif="http://www.serif.com/" style="fill-rule:evenodd;clip-rule:evenodd;stroke-linejoin:round;stroke-miterlimit:2;">
    <g transform="matrix(1,0,0,1,-243.75,-60)">
        <path d="M317.962,540C361.658,484.807 418.807,414.841 423,421C429.849,431.061 443.014,453.736 467,463C490.986,472.264 511.946,476.551 536.062,472C536.062,472 544.013,501.084 552.001,540L317.962,540Z" style="fill:rgb(162,102,229);"/>
    </g>
    <g transform="matrix(1,0,0,1,-243.75,-60)">
        <path d="M433.358,352.774C417.32,353.174 391.729,349.974 376,335C353.229,313.321 356,285 356,285C356,285 393.631,278.321 418,294C432.333,303.222 441.567,314.049 446.742,321.403C446.828,321.269 446.914,321.135 447,321C456.947,305.487 480.781,300 497,300C513.219,300 534.307,304.75 545,315C553.652,323.293 566.642,334.642 575,343C583.358,351.358 607.708,383 628,383C648.292,383 639,404 639,404C639,404 638.581,431.299 605,442C565.129,454.705 522.591,455 518,455C513.409,455 475.949,451.949 459,435C442.051,418.051 431,402.255 431,378C431,368.711 431.684,360.527 433.358,352.774ZM384.274,306.541L383.939,306.358C383.939,306.358 383.949,306.429 383.978,306.567C383.952,306.57 383.939,306.571 383.939,306.571L383.984,306.595C384.244,307.804 385.873,313.536 394.494,321.744C404.012,330.805 427.113,332.804 430,331.605C430,331.605 424.479,322.849 413.041,313.778C402.528,305.441 386.758,306.341 384.274,306.541ZM516.75,347C508.609,347 502,353.609 502,361.75C502,369.891 508.609,376.5 516.75,376.5C524.891,376.5 531.5,369.891 531.5,361.75C531.5,353.609 524.891,347 516.75,347Z" style="fill:rgb(162,102,229);"/>
    </g>
    <g transform="matrix(1,0,0,1,-243.75,-60)">
        <path d="M630,380C621.257,380 614,387.507 614,395C614,403.493 620.504,412 632,412C646.496,412 647,399 647,399L647,394C647,390.309 641.953,380 630,380Z" style="fill:rgb(78,41,122);"/>
    </g>
    <g transform="matrix(1,0,0,1,-243.75,-60)">
        <path d="M356,216.381L356,200C356,197.248 359.758,191 366,191C372.242,191 377,195.288 377,201L377,227.102C392.249,234.642 409.014,242.494 418,246C436.071,253.05 435,250 435,250C427.82,237.967 423.347,240.89 404,222C384.653,203.11 391,169.009 391,163C391,156.991 394.421,152 402,152C409.579,152 412,162 412,162L412,193C412,208.932 432.776,218 435,218C437.224,218 438,214.865 438,207C438,199.135 443.867,194 449,194C456.133,194 460,202.212 460,210C460,217.788 455,226.968 455,234C455,241.032 455.906,248.906 469,262C482.094,275.094 487,288 487,288L477,288C449.708,288 365.85,243.881 338,231C310.15,218.119 307,196.964 307,191C307,185.036 308,171.909 308,164C308,156.091 313.366,151 319,151C324.634,151 330.177,157.745 330,163C329.823,168.255 330,169.194 330,187C330,204.806 339.599,205.676 345,210C346.339,211.072 350.389,213.391 356,216.381Z" style="fill:rgb(78,41,122);"/>
    </g>
</svg>